HIERARCHY
ROOT Hips
{
	OFFSET 0.000000 83.214638 0.000000
	CHANNELS 6 Xposition Yposition Zposition Xrotation Yrotation Zrotation
	JOINT Pelvis
	{
		OFFSET 0.000000 0.000000 0.000000
		CHANNELS 3 Xrotation Yrotation Zrotation
		JOINT LeftUpLeg
		{
			OFFSET 8.479700 -4.795502 -0.379100
			CHANNELS 3 Xrotation Yrotation Zrotation
			JOINT LeftLeg
			{
				OFFSET 0.024144 -32.555107 0.112900
				CHANNELS 3 Xrotation Yrotation Zrotation
				JOINT LeftFoot
				{
					OFFSET -0.024144 -32.638630 -3.012600
					CHANNELS 3 Xrotation Yrotation Zrotation
					JOINT LeftToeBase
					{
						OFFSET 0.970200 -13.225400 11.864200
						CHANNELS 3 Xrotation Yrotation Zrotation
						End Site
						{
							OFFSET 0.000000 12.319262 0.000000
						}
					}
					JOINT LFootTongue
					{
						OFFSET 1.142400 -1.059800 6.665200
						CHANNELS 3 Xrotation Yrotation Zrotation
						End Site
						{
							OFFSET 0.000000 12.319262 0.000000
						}
					}
				}
				JOINT LeftPantLeg
				{
					OFFSET 0.918482 -16.533964 -2.284700
					CHANNELS 3 Xrotation Yrotation Zrotation
					End Site
					{
						OFFSET 0.350399 24.744368 0.000000
					}
				}
			}
		}
		JOINT RightUpLeg
		{
			OFFSET -8.479700 -4.795502 -0.379100
			CHANNELS 3 Xrotation Yrotation Zrotation
			JOINT RightLeg
			{
				OFFSET -0.023144 -32.555092 0.112900
				CHANNELS 3 Xrotation Yrotation Zrotation
				JOINT RightFoot
				{
					OFFSET 0.023144 -32.638641 -3.012700
					CHANNELS 3 Xrotation Yrotation Zrotation
					JOINT RightToeBase
					{
						OFFSET -0.970200 -13.225400 11.864200
						CHANNELS 3 Xrotation Yrotation Zrotation
						End Site
						{
							OFFSET 0.000000 12.319244 0.000000
						}
					}
					JOINT RFootTongue
					{
						OFFSET -1.142200 -1.059800 6.665200
						CHANNELS 3 Xrotation Yrotation Zrotation
						End Site
						{
							OFFSET 0.000000 12.319243 0.000000
						}
					}
				}
				JOINT RightPantLeg
				{
					OFFSET -0.919482 -16.533978 -2.284800
					CHANNELS 3 Xrotation Yrotation Zrotation
					End Site
					{
						OFFSET -0.350400 24.744419 0.000000
					}
				}
			}
		}
	}
	JOINT Spine
	{
		OFFSET 0.000000 7.722000 1.166200
		CHANNELS 3 Xrotation Yrotation Zrotation
		JOINT Spine1
		{
			OFFSET 0.000000 12.024101 0.248800
			CHANNELS 3 Xrotation Yrotation Zrotation
			JOINT Spine2
			{
				OFFSET 0.000000 11.502998 -0.491200
				CHANNELS 3 Xrotation Yrotation Zrotation
				JOINT Neck
				{
					OFFSET 0.000000 18.430702 -3.123100
					CHANNELS 3 Xrotation Yrotation Zrotation
					JOINT Head
					{
						OFFSET 0.000000 9.051102 1.034000
						CHANNELS 3 Xrotation Yrotation Zrotation
						JOINT HairB
						{
							OFFSET 0.208400 24.786102 24.822300
							CHANNELS 3 Xrotation Yrotation Zrotation
							End Site
							{
								OFFSET 0.000000 32.263779 0.000000
							}
						}
						JOINT HairA
						{
							OFFSET -7.081100 24.428299 23.196600
							CHANNELS 3 Xrotation Yrotation Zrotation
							End Site
							{
								OFFSET 0.000000 32.263779 0.000000
							}
						}
						JOINT Hat
						{
							OFFSET 16.728800 15.048294 -15.439601
							CHANNELS 3 Xrotation Yrotation Zrotation
							End Site
							{
								OFFSET 0.000000 32.263779 0.000000
							}
						}
					}
				}
				JOINT LeftShoulder
				{
					OFFSET 6.197800 13.665199 -4.064700
					CHANNELS 3 Xrotation Yrotation Zrotation
					JOINT LeftArm
					{
						OFFSET 7.778100 -0.187103 -1.709300
						CHANNELS 3 Xrotation Yrotation Zrotation
						JOINT LeftForeArm
						{
							OFFSET 22.049376 0.000000 0.000000
							CHANNELS 3 Xrotation Yrotation Zrotation
							JOINT LeftHand
							{
								OFFSET 23.009392 0.000000 0.000000
								CHANNELS 3 Xrotation Yrotation Zrotation
								JOINT LeftHandThumb1
								{
									OFFSET 3.507191 -2.063065 3.133727
									CHANNELS 3 Xrotation Yrotation Zrotation
									JOINT LeftHandThumb2
									{
										OFFSET 3.101337 -1.790558 1.790558
										CHANNELS 3 Xrotation Yrotation Zrotation
										JOINT LeftHandThumb3
										{
											OFFSET 3.058640 -1.765907 1.765906
											CHANNELS 3 Xrotation Yrotation Zrotation
											End Site
											{
												OFFSET -0.415260 3.926476 -0.049563
											}
										}
									}
								}
								JOINT LeftHandIndex1
								{
									OFFSET 11.334419 -0.901459 3.706815
									CHANNELS 3 Xrotation Yrotation Zrotation
									JOINT LeftHandIndex2
									{
										OFFSET 3.283112 0.000000 0.000000
										CHANNELS 3 Xrotation Yrotation Zrotation
										JOINT LeftHandIndex3
										{
											OFFSET 3.323853 0.000000 0.000000
											CHANNELS 3 Xrotation Yrotation Zrotation
											End Site
											{
												OFFSET -1.135597 3.097809 0.402452
											}
										}
									}
								}
								JOINT LeftHandMiddle1
								{
									OFFSET 11.335861 0.000000 0.000000
									CHANNELS 3 Xrotation Yrotation Zrotation
									JOINT LeftHandMiddle2
									{
										OFFSET 3.410492 0.000000 0.000000
										CHANNELS 3 Xrotation Yrotation Zrotation
										JOINT LeftHandMiddle3
										{
											OFFSET 3.312172 0.000000 0.000000
											CHANNELS 3 Xrotation Yrotation Zrotation
											End Site
											{
												OFFSET -1.150200 3.080154 0.400270
											}
										}
									}
								}
								JOINT LeftHandRing1
								{
									OFFSET 11.514786 -0.013176 -3.003090
									CHANNELS 3 Xrotation Yrotation Zrotation
									JOINT LeftHandRing2
									{
										OFFSET 3.053307 0.000000 0.000000
										CHANNELS 3 Xrotation Yrotation Zrotation
										JOINT LeftHandRing3
										{
											OFFSET 3.295807 0.000000 0.000000
											CHANNELS 3 Xrotation Yrotation Zrotation
											End Site
											{
												OFFSET -1.281006 3.013344 0.375733
											}
										}
									}
								}
								JOINT LeftHandPinky1
								{
									OFFSET 10.518692 -0.960396 -5.730441
									CHANNELS 3 Xrotation Yrotation Zrotation
									JOINT LeftHandPinky2
									{
										OFFSET 2.861649 0.000000 0.000000
										CHANNELS 3 Xrotation Yrotation Zrotation
										JOINT LeftHandPinky3
										{
											OFFSET 2.863380 0.000000 0.000000
											CHANNELS 3 Xrotation Yrotation Zrotation
											End Site
											{
												OFFSET -0.843597 2.711159 0.369971
											}
										}
									}
								}
							}
							JOINT LSleeve
							{
								OFFSET 6.676277 -0.344902 -1.011730
								CHANNELS 3 Xrotation Yrotation Zrotation
								End Site
								{
									OFFSET 0.000000 14.885353 0.000000
								}
							}
						}
					}
				}
				JOINT RightShoulder
				{
					OFFSET -6.197800 13.665199 -4.064700
					CHANNELS 3 Xrotation Yrotation Zrotation
					JOINT RightArm
					{
						OFFSET -7.778100 -0.187103 -1.709300
						CHANNELS 3 Xrotation Yrotation Zrotation
						JOINT RightForeArm
						{
							OFFSET -22.049376 0.000000 0.000000
							CHANNELS 3 Xrotation Yrotation Zrotation
							JOINT RightHand
							{
								OFFSET -23.009392 0.000000 0.000000
								CHANNELS 3 Xrotation Yrotation Zrotation
								JOINT RightHandThumb1
								{
									OFFSET -3.507191 -2.063065 3.133727
									CHANNELS 3 Xrotation Yrotation Zrotation
									JOINT RightHandThumb2
									{
										OFFSET -3.101337 -1.790558 1.790558
										CHANNELS 3 Xrotation Yrotation Zrotation
										JOINT RightHandThumb3
										{
											OFFSET -3.058640 -1.765907 1.765906
											CHANNELS 3 Xrotation Yrotation Zrotation
											End Site
											{
												OFFSET 0.415260 3.926476 -0.049563
											}
										}
									}
								}
								JOINT RightHandIndex1
								{
									OFFSET -11.334419 -0.901459 3.706815
									CHANNELS 3 Xrotation Yrotation Zrotation
									JOINT RightHandIndex2
									{
										OFFSET -3.283112 0.000000 0.000000
										CHANNELS 3 Xrotation Yrotation Zrotation
										JOINT RightHandIndex3
										{
											OFFSET -3.323853 0.000000 0.000000
											CHANNELS 3 Xrotation Yrotation Zrotation
											End Site
											{
												OFFSET 1.135597 3.097809 0.402452
											}
										}
									}
								}
								JOINT RightHandMiddle1
								{
									OFFSET -11.335861 0.000000 0.000000
									CHANNELS 3 Xrotation Yrotation Zrotation
									JOINT RightHandMiddle2
									{
										OFFSET -3.410492 0.000000 0.000000
										CHANNELS 3 Xrotation Yrotation Zrotation
										JOINT RightHandMiddle3
										{
											OFFSET -3.312172 0.000000 0.000000
											CHANNELS 3 Xrotation Yrotation Zrotation
											End Site
											{
												OFFSET 1.150200 3.080154 0.400270
											}
										}
									}
								}
								JOINT RightHandRing1
								{
									OFFSET -11.514786 -0.013176 -3.003090
									CHANNELS 3 Xrotation Yrotation Zrotation
									JOINT RightHandRing2
									{
										OFFSET -3.053307 0.000000 0.000000
										CHANNELS 3 Xrotation Yrotation Zrotation
										JOINT RightHandRing3
										{
											OFFSET -3.295807 0.000000 0.000000
											CHANNELS 3 Xrotation Yrotation Zrotation
											End Site
											{
												OFFSET 1.281006 3.013344 0.375733
											}
										}
									}
								}
								JOINT RightHandPinky1
								{
									OFFSET -10.518692 -0.960396 -5.730441
									CHANNELS 3 Xrotation Yrotation Zrotation
									JOINT RightHandPinky2
									{
										OFFSET -2.861649 0.000000 0.000000
										CHANNELS 3 Xrotation Yrotation Zrotation
										JOINT RightHandPinky3
										{
											OFFSET -2.863380 0.000000 0.000000
											CHANNELS 3 Xrotation Yrotation Zrotation
											End Site
											{
												OFFSET 0.843597 2.711159 0.369971
											}
										}
									}
								}
							}
							JOINT RSleeve
							{
								OFFSET -6.676277 -0.344902 -1.011730
								CHANNELS 3 Xrotation Yrotation Zrotation
								End Site
								{
									OFFSET 0.000000 14.885353 0.000000
								}
							}
						}
					}
				}
				JOINT Backpack
				{
					OFFSET 0.000000 -2.471497 36.677502
					CHANNELS 3 Xrotation Yrotation Zrotation
					End Site
					{
						OFFSET 0.000000 20.427315 0.000000
					}
				}
				JOINT Hood
				{
					OFFSET 0.000000 18.754097 -10.431000
					CHANNELS 3 Xrotation Yrotation Zrotation
					JOINT Hood1
					{
						OFFSET 0.000000 -5.011002 -7.685901
						CHANNELS 3 Xrotation Yrotation Zrotation
						End Site
						{
							OFFSET 0.000000 9.175140 0.000000
						}
					}
				}
				JOINT LHoodieString
				{
					OFFSET 5.250500 16.397697 3.089900
					CHANNELS 3 Xrotation Yrotation Zrotation
					JOINT LHoodieString1
					{
						OFFSET 0.257700 -6.364304 3.694600
						CHANNELS 3 Xrotation Yrotation Zrotation
						JOINT LHoodieString2
						{
							OFFSET 0.000000 -9.643799 2.679100
							CHANNELS 3 Xrotation Yrotation Zrotation
							End Site
							{
								OFFSET 0.000000 10.009018 0.000000
							}
						}
					}
				}
				JOINT RHoodieString
				{
					OFFSET -5.250500 16.397697 3.089900
					CHANNELS 3 Xrotation Yrotation Zrotation
					JOINT RHoodieString1
					{
						OFFSET -0.257700 -6.364304 3.694600
						CHANNELS 3 Xrotation Yrotation Zrotation
						JOINT RHoodieString2
						{
							OFFSET 0.000000 -9.643799 2.679100
							CHANNELS 3 Xrotation Yrotation Zrotation
							End Site
							{
								OFFSET 0.000000 10.009018 0.000000
							}
						}
					}
				}
			}
			JOINT LBackpack_Strap
			{
				OFFSET 15.223200 -7.719803 -6.610900
				CHANNELS 3 Xrotation Yrotation Zrotation
				End Site
				{
					OFFSET 0.000000 16.040596 0.000000
				}
			}
			JOINT RBackpack_Strap
			{
				OFFSET -15.223000 -7.719803 -6.610900
				CHANNELS 3 Xrotation Yrotation Zrotation
				End Site
				{
					OFFSET 0.000000 16.040596 0.000000
				}
			}
		}
	}
	JOINT BoyFacialAnim_Joint
	{
		OFFSET 1.000000 -82.208099 -1.550900
		CHANNELS 3 Xrotation Yrotation Zrotation
		End Site
		{
			OFFSET 0.000000 30.012791 0.000000
		}
	}
}
MOTION
Frames: 4
Frame Time: 0.033333
0.878586 81.126060 1.059250 4.450108 16.257573 -2.185971 -0.000000 0.000002 -0.000000 -14.653018 10.072560 -4.662247 27.994789 9.583789 -0.313285 -15.143525 -2.602862 13.176621 0.000000 0.000001 -0.000001 0.000000 0.000001 -0.000001 -0.000003 -0.000000 0.000000 -13.143606 -7.926100 4.408712 26.296778 -0.855717 -7.912445 -13.028094 -0.224824 1.317930 0.000000 0.000001 -0.000000 0.000000 0.000001 -0.000000 -0.000000 0.000001 -0.000000 -9.074860 -9.796222 1.106383 4.636100 -1.592017 -0.303831 4.616004 -1.618330 -0.429758 3.210326 -2.116575 2.121248 7.396630 -7.821496 0.693632 0.000001 -0.000001 0.000000 0.000001 -0.000001 0.000000 0.000001 -0.000001 0.000000 1.305225 -1.808908 2.207024 -18.945055 -38.994680 -54.911480 0.000054 -106.768329 0.000047 32.363728 -31.454800 31.464475 -1.540042 3.690184 6.142337 4.701766 17.342959 1.440012 0.000000 0.000000 -0.000001 0.028620 0.628491 -5.215314 0.028622 0.628490 -5.215302 -0.000001 -0.000000 -0.000002 0.028447 0.626569 -5.199338 0.028797 0.630408 -5.231276 0.000001 -0.000000 -0.000003 0.028623 0.628487 -5.215321 0.028621 0.628489 -5.215302 -0.000001 -0.000001 -0.000001 0.380040 4.667563 -4.721133 0.016199 -3.426043 -5.723970 -0.000001 0.000000 -0.000000 -0.000000 0.000000 -0.000001 -0.063058 -9.130680 7.907590 4.717487 -12.300217 43.922163 0.000037 114.463896 -0.000042 30.421461 -14.630120 29.801731 -1.833778 1.170730 -5.851338 5.610181 -19.613330 -0.957310 0.000000 -0.000002 -0.000002 0.109631 -1.232342 10.166875 0.109634 -1.232325 10.166877 0.000002 -0.000001 0.000003 0.109627 -1.232336 10.166883 0.109639 -1.232331 10.166864 0.000001 0.000001 -0.000000 0.109628 -1.232334 10.166883 0.109637 -1.232328 10.166860 -0.000002 0.000000 0.000004 0.109628 -1.232330 10.166875 0.109641 -1.232325 10.166865 0.000000 -0.000001 -0.000003 0.000003 -0.000000 -0.000001 -0.000000 -0.000000 -0.000000 -0.000000 -0.000000 -0.000000 -0.000000 -0.000000 -0.000000 -0.000000 -0.000000 -0.000000 -0.000000 -0.000000 -0.000000 -0.000001 -0.000000 -0.000000 -0.000000 -0.000000 -0.000000 -0.000000 -0.000000 -0.000000 -0.000001 -0.000000 -0.000000 -0.000000 0.000000 0.000000 -0.000000 0.000000 0.000000 -0.000000 0.000002 -0.000000 
1.162238 81.125252 1.200418 5.839012 19.275263 -4.874919 0.000000 0.000001 0.000000 -21.674854 9.193344 -1.368109 35.646392 4.298244 1.679218 -9.345644 -0.741037 5.199788 0.000002 -0.000001 -0.000000 0.000002 -0.000001 0.000000 -0.000001 -0.000000 0.000000 -10.601068 -7.622181 4.727053 20.814511 -2.533523 -3.770943 -13.026803 -0.144812 0.824629 0.000000 0.000000 -0.000000 0.000000 0.000000 -0.000000 0.000000 -0.000000 0.000000 -10.569419 -10.677829 1.002490 5.259094 -1.547639 1.776884 5.282379 -1.631456 1.628382 2.552512 -2.484928 1.482319 7.859772 -10.020500 -1.000448 0.000002 -0.000000 -0.000000 0.000002 -0.000000 -0.000000 0.000002 -0.000000 -0.000000 1.186082 -1.425575 3.558483 -15.856906 -45.512043 -50.095660 0.000059 -106.733126 0.000059 30.966517 -32.251894 31.432865 -1.539999 3.695885 6.142569 4.701762 17.342960 1.440014 -0.000000 -0.000001 0.000002 0.030037 0.643837 -5.343003 0.030091 0.644364 -5.347410 -0.000000 -0.000001 -0.000000 0.029862 0.641914 -5.327016 0.030271 0.646286 -5.363383 0.000001 -0.000001 0.000007 0.030040 0.643832 -5.342996 0.030088 0.644364 -5.347407 -0.000000 0.000000 -0.000002 0.390491 4.682113 -4.849308 0.017811 -3.410184 -5.855968 0.000000 0.000000 -0.000005 -0.000001 0.000000 -0.000002 -0.134169 -11.010195 8.907852 2.617250 -18.183232 41.557439 0.000049 112.018504 -0.000054 28.297843 -17.939661 24.092901 -1.836622 -1.864699 -6.320297 5.861330 -22.612811 -1.131006 -0.000001 0.000001 -0.000002 0.109635 -1.232342 10.166877 0.109630 -1.232321 10.166870 -0.000001 0.000001 -0.000001 0.109629 -1.232337 10.166885 0.109641 -1.232330 10.166866 0.000003 0.000001 -0.000002 0.109630 -1.232336 10.166883 0.109635 -1.232327 10.166868 -0.000004 -0.000000 0.000002 0.109632 -1.232332 10.166877 0.109638 -1.232325 10.166867 0.000001 -0.000002 -0.000002 0.000000 0.000000 -0.000000 0.000000 0.000000 -0.000000 0.000000 0.000000 -0.000000 0.000000 0.000000 -0.000000 0.000000 0.000000 -0.000000 0.000000 0.000000 0.000000 -0.000000 0.000000 -0.000000 0.000000 0.000000 -0.000000 0.000000 0.000000 0.000000 -0.000000 0.000000 -0.000000 0.000000 -0.000000 -0.000000 0.000000 -0.000000 -0.000000 0.000000 0.000001 0.000000 
1.297024 80.824722 1.338821 7.117431 20.442700 -7.587271 -0.000000 0.000000 0.000000 -28.315734 8.255650 1.545053 43.324573 -3.968257 2.392049 -4.570012 -0.679730 6.000650 -0.000000 0.000001 -0.000000 -0.000000 0.000001 -0.000000 -0.000001 -0.000001 0.000000 -9.341656 -8.772863 5.617693 17.939094 -3.964309 -0.268936 -13.751681 0.232224 -1.351030 -0.000000 -0.000001 -0.000000 -0.000000 -0.000001 -0.000000 0.000001 0.000000 -0.000000 -11.286433 -10.282603 2.376934 5.256926 -1.349459 2.653541 5.294054 -1.455279 2.516156 2.253749 -2.909106 1.138121 8.497758 -12.124538 -1.432161 0.000001 0.000000 -0.000000 0.000001 0.000000 -0.000000 0.000001 0.000000 -0.000000 1.445383 -1.746808 4.834109 -11.184393 -50.883741 -42.846323 0.000010 -107.061262 0.000003 35.645880 -29.303868 35.629846 -1.540136 3.697153 6.144445 4.701763 17.342960 1.440014 -0.000001 0.000000 0.000002 0.030023 0.643644 -5.341419 0.030049 0.643906 -5.343602 -0.000001 0.000000 -0.000005 0.029843 0.641725 -5.325452 0.030232 0.645827 -5.359585 0.000001 -0.000000 -0.000002 0.030025 0.643641 -5.341420 0.030044 0.643904 -5.343600 -0.000001 0.000000 0.000001 0.390363 4.681933 -4.847749 0.017763 -3.410640 -5.852164 -0.000000 0.000000 -0.000000 0.000002 0.000002 -0.000000 -0.274816 -12.458067 9.862480 -0.428140 -22.798652 39.518850 0.000045 108.401099 -0.000057 26.135840 -20.062340 18.925590 -1.893039 -6.713871 -7.074009 6.434571 -29.630710 -1.496689 0.000000 0.000001 0.000003 0.109636 -1.232339 10.166875 0.109629 -1.232324 10.166875 -0.000003 0.000002 -0.000001 0.109630 -1.232332 10.166881 0.109639 -1.232332 10.166866 -0.000000 -0.000001 0.000001 0.109632 -1.232330 10.166882 0.109632 -1.232330 10.166867 0.000003 -0.000001 0.000002 0.109631 -1.232332 10.166877 0.109641 -1.232323 10.166862 -0.000000 0.000002 -0.000001 0.000002 0.000001 0.000000 0.000000 0.000000 -0.000000 0.000000 0.000000 -0.000000 0.000000 0.000000 -0.000000 0.000000 0.000000 -0.000000 0.000000 0.000000 -0.000000 0.000000 0.000000 0.000000 0.000000 0.000000 -0.000000 0.000000 0.000000 -0.000000 0.000000 0.000000 0.000000 -0.000000 -0.000000 -0.000000 -0.000000 -0.000000 -0.000000 -0.000000 0.000000 0.000000 
1.357022 80.078491 1.508342 7.969939 19.476424 -9.956724 -0.000000 0.000001 0.000000 -36.625277 7.575441 6.730730 53.249927 -8.923015 4.207283 -0.938977 -2.886296 0.987836 0.000001 0.000001 -0.000001 0.000001 0.000001 -0.000000 -0.000000 0.000001 -0.000000 -9.558453 -11.588563 6.552503 18.582105 -2.115940 1.532792 -15.185964 0.166887 -1.325661 0.000000 0.000000 -0.000000 0.000000 0.000000 -0.000000 -0.000003 0.000000 0.000000 -11.606975 -8.554553 4.467034 4.799113 -1.032474 2.604889 4.824966 -1.108618 2.506118 2.681121 -3.253712 1.060314 8.799951 -13.532307 -0.339848 0.000000 -0.000000 0.000000 0.000000 -0.000000 0.000000 0.000000 -0.000000 0.000000 1.410245 -1.532887 5.509207 -4.357866 -55.058814 -33.306939 -0.000061 -107.869000 -0.000045 41.781077 -24.625774 40.661308 -1.540286 3.688800 6.145356 4.701763 17.342957 1.440008 -0.000002 0.000000 0.000003 0.027833 0.619745 -5.142520 0.027774 0.618995 -5.136298 -0.000001 0.000000 -0.000005 0.027667 0.617823 -5.126537 0.027943 0.620918 -5.152277 0.000003 0.000000 -0.000007 0.027837 0.619743 -5.142532 0.027760 0.618995 -5.136272 0.000001 0.000001 0.000001 0.374110 4.659261 -4.648062 0.015250 -3.435526 -5.645013 0.000001 0.000002 -0.000002 -0.000000 0.000001 0.000000 -0.474401 -12.857438 9.909133 -3.814098 -25.814813 38.237708 0.000188 103.904676 -0.000179 24.982397 -20.999135 15.430272 -2.035456 -12.170443 -7.941100 7.168507 -38.734051 -1.885698 -0.000000 -0.000000 0.000000 0.109631 -1.232339 10.166877 0.109634 -1.232328 10.166874 -0.000002 0.000000 0.000002 0.109630 -1.232331 10.166884 0.109639 -1.232330 10.166861 0.000003 0.000000 -0.000000 0.109631 -1.232334 10.166883 0.109631 -1.232326 10.166866 0.000000 0.000001 0.000001 0.109629 -1.232330 10.166878 0.109640 -1.232325 10.166863 -0.000001 -0.000001 0.000002 -0.000001 0.000000 0.000001 0.000000 -0.000000 -0.000000 0.000000 -0.000000 -0.000000 0.000000 -0.000000 -0.000000 0.000000 -0.000000 -0.000000 0.000000 -0.000000 -0.000000 -0.000000 -0.000000 -0.000000 0.000000 -0.000000 -0.000000 0.000000 -0.000000 -0.000000 -0.000000 -0.000000 -0.000000 -0.000000 0.000000 0.000000 -0.000000 0.000000 0.000000 -0.000000 0.000001 0.000000 
